<?xml version="1.0" encoding="UTF-8"?><svg id="Layer_1" xmlns="http://www.w3.org/2000/svg" viewBox="0 0 30 15"><defs><style>.cls-1{fill:#fff;}</style></defs><path class="cls-1" d="M2.4,6.58l-1.42,1.37c-.25-.65-.37-1.27-.37-1.88,0-1.5,.65-2.71,1.95-3.63,1.09-.77,2.95-1.16,5.59-1.16,.45,0,.84,0,1.18,.03,.94,.06,1.42,.09,1.44,.09h.63c-.47,.74-.71,2.23-.71,4.48v.47l.05,1.04c0,1.25,.15,2.53,.46,3.84,.12,.51,.24,.83,.35,.98s.31,.22,.6,.22c.31,0,.66-.1,1.05-.3,.04,.1,.06,.19,.06,.25,0,.15-.12,.28-.35,.39l-.43,.21-2.23,.97c-.5-1.53-.8-3.13-.9-4.81l-.69,.48h-3.05c-.56,1.41-1.32,2.42-2.29,3.03l1.88,.09-.98,1.03-3.62-.13,1.21-1.09,.91,.05c.41-.3,.76-.73,1.05-1.27,.29-.55,.72-1.61,1.3-3.18l.27-.75c.56-1.52,1.09-2.62,1.59-3.31s1.19-1.26,2.05-1.71c-.95-.18-1.95-.26-3-.26-2.68,0-4.02,.9-4.02,2.71,0,.62,.15,1.19,.44,1.73Zm6.94,2.07c-.08-1.05-.13-1.9-.13-2.55,0-.33,0-.6,.02-.81l.07-1.05c.05-.72,.11-1.27,.2-1.65-1.19,.72-2.16,2.2-2.92,4.44-.22,.65-.34,1.02-.38,1.11l-.21,.52h3.35Z"/><path class="cls-1" d="M14.71,13.97c-.27-.57-.62-1-1.06-1.29l1.34-1.28c.39,.3,.74,.72,1.05,1.28l-1.33,1.29Z"/><path class="cls-1" d="M18.46,13.37l1.15-1.23,.28,.06c.36,.09,.71,.16,1.03,.2,.49-.3,.82-.67,.99-1.09s.33-1.25,.47-2.49l.76-6.82c-1.26,.09-2.26,.43-3.01,1.01s-1.12,1.32-1.12,2.21c0,.53,.13,1.03,.4,1.5l-1.46,1.29c-.13-.47-.19-.94-.19-1.41,0-1.63,.7-2.97,2.09-4.01s3.18-1.56,5.35-1.56c2.8,0,4.2,.8,4.2,2.41,0,1.37-.97,2.47-2.92,3.29,1.9,.69,2.85,1.75,2.85,3.18,0,1.16-.59,2.09-1.77,2.78s-2.76,1.04-4.73,1.04c-1.22,0-2.67-.11-4.37-.34Zm5.54-5.91l-.13,1.21-.08,.76c-.1,.9-.28,1.53-.54,1.9-.26,.37-.8,.76-1.64,1.18,1.2,.2,2.38,.29,3.55,.29,1.89,0,2.84-.75,2.84-2.25,0-.65-.26-1.27-.78-1.87-.52-.6-1.15-1.01-1.9-1.23h-.24l-.44,.03-.4-.02h-.25Zm.61-5.53l-.53,4.79c.36,.03,.67,.05,.93,.05,.29,0,.64-.02,1.04-.06,1.29-.74,1.93-1.63,1.93-2.67,0-1.4-1.12-2.1-3.37-2.1Z"/></svg>