<?xml version="1.0" encoding="UTF-8"?><svg id="Layer_1" xmlns="http://www.w3.org/2000/svg" viewBox="0 0 600 150"><defs><style>.cls-1{fill:#005990;}</style></defs><path class="cls-1" d="M33.4,119.93c-4.64,0-8.15-1.18-10.45-3.51-2.29-2.31-3.45-5.81-3.45-10.39V43.97c0-2.97,.46-5.41,1.42-7.43,1.08-2.31,2.81-4.03,5.14-5.09,2.02-.92,4.42-1.37,7.34-1.37h44.15c3.59,0,6.42,.92,8.4,2.73,2.05,1.87,3.13,4.41,3.13,7.34s-1.08,5.53-3.13,7.4c-1.98,1.81-4.81,2.73-8.4,2.73H43.52v12.98h31.04c3.48,0,6.23,.9,8.17,2.67,2.01,1.84,3.08,4.34,3.08,7.23s-1.03,5.36-2.99,7.23c-1.93,1.85-4.71,2.78-8.26,2.78h-31.04v16.19h35.32c3.55,0,6.38,.94,8.4,2.79,2.08,1.91,3.18,4.52,3.18,7.56s-1.1,5.54-3.18,7.45c-2.02,1.85-4.85,2.79-8.4,2.79H33.4Zm208.36-45.04c0,6.75-.93,12.98-2.77,18.55-1.88,5.68-4.75,10.68-8.53,14.87-3.81,4.22-8.55,7.5-14.08,9.72-2.85,1.15-5.94,2.01-9.23,2.55v-22.3c.13-.07,.26-.15,.39-.23,2.98-1.78,5.31-4.51,7.13-8.34,1.87-3.95,2.83-8.98,2.83-14.94,0-5.51-.88-10.3-2.62-14.24-1.67-3.78-3.95-6.54-6.97-8.43-.26-.16-.51-.31-.77-.46V29.46c5.19,.89,9.9,2.52,14.08,4.89,6.75,3.82,11.94,9.34,15.41,16.37,3.38,6.88,5.11,15.01,5.11,24.16Zm-62.61-43c2.81-1.12,5.83-1.95,9.04-2.48v22.14c-1.74,.96-3.26,2.22-4.61,3.81-1.71,2.02-3.11,4.69-4.14,7.94-1.06,3.36-1.6,7.23-1.6,11.49s.55,8.22,1.61,11.64c1.03,3.3,2.47,6.03,4.29,8.13,1.34,1.55,2.84,2.82,4.46,3.78v22.21c-3.25-.56-6.32-1.43-9.18-2.6-5.6-2.28-10.35-5.56-14.12-9.75-3.74-4.15-6.6-9.2-8.5-14.99-1.86-5.67-2.8-11.87-2.8-18.42s.98-13,2.93-18.64c1.98-5.75,4.9-10.74,8.69-14.81,3.81-4.1,8.5-7.28,13.94-9.44Zm89.98,85.79c2.2-2.36,3.32-5.78,3.32-10.17v-23.55h23.89c3.42,0,6.14-.88,8.1-2.6,2.06-1.82,3.15-4.34,3.15-7.3s-1.06-5.45-3.08-7.29c-1.95-1.77-4.69-2.67-8.17-2.67h-23.89v-13.82h29.3c3.59,0,6.42-.92,8.4-2.73,2.05-1.87,3.13-4.43,3.13-7.4s-1.08-5.47-3.13-7.34c-1.98-1.81-4.81-2.73-8.4-2.73h-39.42c-2.92,0-5.32,.45-7.34,1.37-2.32,1.06-4.05,2.77-5.14,5.09-.95,2.03-1.41,4.46-1.41,7.43v63.52c0,4.34,1.11,7.75,3.3,10.13,2.24,2.43,5.26,3.71,8.74,3.71s6.43-1.27,8.66-3.67Zm69.66,0c2.2-2.36,3.32-5.78,3.32-10.17v-23.55h23.89c3.42,0,6.14-.88,8.1-2.6,2.06-1.82,3.15-4.34,3.15-7.3s-1.06-5.45-3.08-7.29c-1.95-1.77-4.69-2.67-8.17-2.67h-23.89v-13.82h29.3c3.59,0,6.42-.92,8.4-2.73,2.05-1.87,3.13-4.43,3.13-7.4s-1.08-5.47-3.13-7.34c-1.98-1.81-4.81-2.73-8.4-2.73h-39.42c-2.92,0-5.32,.45-7.34,1.37-2.32,1.06-4.05,2.77-5.14,5.09-.95,2.03-1.41,4.46-1.41,7.43v63.52c0,4.34,1.11,7.75,3.3,10.13,2.24,2.43,5.26,3.71,8.74,3.71s6.43-1.27,8.66-3.67Zm70.69-.04c2.19-2.38,3.3-5.79,3.3-10.13V42.45c0-4.35-1.12-7.76-3.32-10.12-2.24-2.4-5.27-3.66-8.78-3.66s-6.44,1.29-8.66,3.72c-2.16,2.37-3.26,5.76-3.26,10.06V107.49c0,4.3,1.11,7.7,3.29,10.09,2.24,2.45,5.22,3.75,8.64,3.75s6.55-1.28,8.79-3.71Zm23.67-76.39c-3.94,4.08-7,9.05-9.1,14.76-2.07,5.63-3.13,12.06-3.13,19.11,0,4.33,.42,8.49,1.23,12.36,.83,3.91,2.09,7.64,3.75,11.1,1.66,3.47,3.71,6.66,6.09,9.5,2.68,3.14,5.69,5.72,8.92,7.65,3.22,1.94,6.85,3.38,10.77,4.29,.07,.01,.14,.03,.21,.04v-23.38c-1.76-1.6-3.18-3.71-4.3-6.39-1.6-3.79-2.42-8.7-2.42-14.6,0-8.73,1.8-15.46,5.34-20,.44-.57,.9-1.1,1.39-1.59V30.25c-1.64,.44-3.25,.98-4.81,1.61-5.3,2.14-9.98,5.3-13.93,9.38Zm63.61,2.84c-3.11-4.39-7.59-8.1-13.31-11.02-3.84-1.95-8.05-3.27-12.6-3.92v21.38c.71,.31,1.39,.69,2.03,1.12,2.44,1.68,4.65,4.34,6.53,7.88,1.52,2.86,2.92,4.88,4.29,6.18,1.77,1.67,4.23,2.52,7.33,2.52,2.92,0,5.54-1.16,7.58-3.37,1.98-2.15,2.99-4.69,2.99-7.54,0-4.24-1.63-8.69-4.84-13.23Zm1.82,38.33c-2.09-2.04-4.75-3.12-7.67-3.12-4.38,0-6.75,1.9-7.96,3.49-1.28,1.68-2.36,3.81-3.19,6.35-1.42,3.87-3.51,6.8-6.2,8.74-.84,.61-1.74,1.11-2.7,1.52v21.55c3.65-.47,7.02-1.35,10.06-2.65,4.76-2.03,8.75-4.73,11.87-8.03,3.06-3.25,5.35-6.64,6.81-10.09,1.48-3.49,2.23-6.84,2.23-9.95s-1.12-5.73-3.25-7.8Zm70.33,37.51c3.56,0,6.38-.94,8.4-2.79,2.08-1.91,3.18-4.48,3.18-7.45s-1.1-5.65-3.19-7.56c-2.02-1.85-4.85-2.79-8.4-2.79h-35.32v-16.19h31.04c3.55,0,6.33-.94,8.26-2.78,1.95-1.87,2.99-4.36,2.99-7.23s-1.06-5.4-3.08-7.23c-1.94-1.77-4.69-2.67-8.17-2.67h-31.04v-12.98h34.03c3.59,0,6.42-.92,8.4-2.73,2.05-1.87,3.13-4.43,3.13-7.4s-1.08-5.47-3.13-7.34c-1.98-1.81-4.81-2.73-8.4-2.73h-44.15c-2.92,0-5.32,.45-7.35,1.37-2.32,1.06-4.05,2.77-5.13,5.09-.95,2.03-1.42,4.46-1.42,7.43v62.06c0,4.58,1.16,8.08,3.45,10.39,2.3,2.33,5.81,3.51,10.45,3.51h45.45ZM142.5,75h0c0-5.25-4.25-9.5-9.5-9.5h-25c-5.25,0-9.5,4.25-9.5,9.5h0c0,5.25,4.25,9.5,9.5,9.5h25c5.25,0,9.5-4.25,9.5-9.5Z"/></svg>